<?xml version="1.0"?>
<svg width="256" height="220.57001" xmlns="http://www.w3.org/2000/svg" xmlns:svg="http://www.w3.org/2000/svg" xmlns:xlink="http://www.w3.org/1999/xlink">
 <defs>
  <filter id="bh">
   <feGaussianBlur stdDeviation="2.15953"/>
  </filter>
  <linearGradient id="bc" x1="-6.060044" x2="-6.060044" y1="0.961428" y2="-0.001093">
   <stop offset="0"/>
   <stop offset="1" stop-opacity="0"/>
  </linearGradient>
  <linearGradient id="b">
   <stop offset="0" stop-color="#f5f5f2"/>
   <stop offset="0.10354" stop-color="#f6f6f4"/>
   <stop offset="0.88421" stop-color="#f6f6f4"/>
   <stop offset="0.91561" stop-color="#fcfbf7"/>
   <stop offset="1" stop-color="#d7d7cf"/>
  </linearGradient>
  <linearGradient id="bg" x1="0.79064" x2="0.224417" y1="0.203595" y2="0.429984">
   <stop offset="0" stop-color="#e3e3d9"/>
   <stop offset="0.5" stop-color="#fff"/>
   <stop offset="1" stop-color="#f9f9f4"/>
  </linearGradient>
  <linearGradient id="bf" x1="-0.559719" x2="-0.766006" y1="-0.861796" y2="-0.784625">
   <stop offset="0" stop-color="#e5e5e0"/>
   <stop offset="1" stop-color="#fff" stop-opacity="0"/>
  </linearGradient>
  <linearGradient id="be" x1="-0.096941" x2="-0.096941" xlink:href="#b" y1="-0.002508" y2="1.00229"/>
  <linearGradient id="bd" x1="2.846727" x2="0.530266" xlink:href="#b" y1="-1.223513" y2="0.16423"/>
  <pattern height="115.00439" id="ar" patternTransform="translate(6.404 223.37)" patternUnits="userSpaceOnUse" width="87.62443">
   <path d="m2.096,1.9889l77.355,0" id="svg_1" stroke="#716c61" stroke-linecap="round" stroke-width="4"/>
   <path d="m2.096,11.572l75.965,0" id="svg_2" stroke="#716c61" stroke-linecap="round" stroke-width="4"/>
   <path d="m2.096,21.156l78.596,0" id="svg_3" stroke="#716c61" stroke-linecap="round" stroke-width="4"/>
   <path d="m2.096,30.739l31,0" id="svg_4" stroke="#716c61" stroke-linecap="round" stroke-width="4"/>
   <path d="m2.096,40.322l81.673,0" id="svg_5" stroke="#716c61" stroke-linecap="round" stroke-width="4"/>
   <path d="m2.096,49.906l83.373,0" id="svg_6" stroke="#716c61" stroke-linecap="round" stroke-width="4"/>
   <path d="m2.096,59.489l78.621,0" id="svg_7" stroke="#716c61" stroke-linecap="round" stroke-width="4"/>
   <path d="m2.096,69.073l75.196,0" id="svg_8" stroke="#716c61" stroke-linecap="round" stroke-width="4"/>
   <path d="m2.096,78.656l83.5,0" id="svg_9" stroke="#716c61" stroke-linecap="round" stroke-width="4"/>
   <path d="m2.096,88.239l80.426,0" id="svg_10" stroke="#716c61" stroke-linecap="round" stroke-width="4"/>
   <path d="m2.096,97.823l44.086,0" id="svg_11" stroke="#716c61" stroke-linecap="round" stroke-width="4"/>
   <path d="m2.096,107.41l68.278,0" id="svg_12" stroke="#716c61" stroke-linecap="round" stroke-width="4"/>
  </pattern>
  <pattern id="as" patternTransform="matrix(.63376 0 0 .49797 -151.47 667.35)" xlink:href="#l"/>
  <pattern id="at" patternTransform="matrix(.63376 0 0 .49797 -161.18 734.74)" xlink:href="#m"/>
  <pattern id="au" patternTransform="matrix(.63376 0 0 .49797 -146.41 692.26)" xlink:href="#n"/>
  <pattern id="av" patternTransform="matrix(.63376 0 0 .49797 -148.25 739.82)" xlink:href="#o"/>
  <pattern id="aw" patternTransform="matrix(.63376 0 0 .49797 -154.26 696.87)" xlink:href="#p"/>
  <pattern id="ax" patternTransform="matrix(.63376 0 0 .49797 -161.18 734.74)" xlink:href="#q"/>
  <pattern id="ay" patternTransform="matrix(.63376 0 0 .49797 -126.22 693.64)" xlink:href="#r"/>
  <pattern id="az" patternTransform="matrix(.63376 0 0 .49797 -146.41 692.26)" xlink:href="#s"/>
  <pattern id="ba" patternTransform="matrix(.63376 0 0 .49797 -161.18 734.74)" xlink:href="#t"/>
  <pattern id="bb" patternTransform="matrix(.63376 0 0 .49797 236.73 844.6)" xlink:href="#u"/>
  <pattern id="l" patternTransform="matrix(.68616 0 0 .53915 1221.2 771.89)" xlink:href="#d"/>
  <pattern id="d" patternTransform="matrix(.68616 0 0 .53915 1221.2 771.89)" xlink:href="#i"/>
  <pattern id="i" patternTransform="matrix(.68616 0 0 .53915 -8.4553 272.06)" xlink:href="#y"/>
  <pattern id="y" patternTransform="matrix(.68616 0 0 .53915 -8.4553 272.06)" xlink:href="#ag"/>
  <pattern id="ag" patternTransform="matrix(.68616 0 0 .53915 171.54 226.56)" xlink:href="#ao"/>
  <pattern id="ao" patternTransform="matrix(.68616 0 0 .53915 6.5447 226.56)" xlink:href="#a"/>
  <pattern id="a" patternTransform="matrix(.54351 0 0 .45219 6.404 226.56)" xlink:href="#ar"/>
  <pattern id="m" patternTransform="matrix(.68616 0 0 .53915 1209.9 863.06)" xlink:href="#h"/>
  <pattern id="h" patternTransform="matrix(.68616 0 0 .53915 1209.9 863.06)" xlink:href="#w"/>
  <pattern id="w" patternTransform="matrix(.68616 0 0 .53915 -8.4553 272.06)" xlink:href="#ae"/>
  <pattern id="ae" patternTransform="matrix(.68616 0 0 .53915 171.54 226.56)" xlink:href="#an"/>
  <pattern id="an" patternTransform="matrix(.68616 0 0 .53915 6.5447 226.56)" xlink:href="#a"/>
  <pattern id="n" patternTransform="matrix(.68616 0 0 .53915 1225.9 817.06)" xlink:href="#aq"/>
  <pattern id="aq" patternTransform="matrix(.68616 0 0 .53915 1225.9 817.06)" xlink:href="#a"/>
  <pattern id="o" patternTransform="matrix(.68616 0 0 .53915 1223.9 868.56)" xlink:href="#aa"/>
  <pattern id="aa" patternTransform="matrix(.68616 0 0 .53915 1223.9 868.56)" xlink:href="#ai"/>
  <pattern id="ai" patternTransform="matrix(.68616 0 0 .53915 6.5447 226.56)" xlink:href="#a"/>
  <pattern id="p" patternTransform="matrix(.68616 0 0 .53915 1217.4 822.06)" xlink:href="#ab"/>
  <pattern id="ab" patternTransform="matrix(.68616 0 0 .53915 1217.4 822.06)" xlink:href="#aj"/>
  <pattern id="aj" patternTransform="matrix(.68616 0 0 .53915 6.5447 226.56)" xlink:href="#a"/>
  <pattern id="q" patternTransform="matrix(.68616 0 0 .53915 1209.9 863.06)" xlink:href="#z"/>
  <pattern id="z" patternTransform="matrix(.68616 0 0 .53915 1209.9 863.06)" xlink:href="#ac"/>
  <pattern id="ac" patternTransform="matrix(.68616 0 0 .53915 171.54 226.56)" xlink:href="#ap"/>
  <pattern id="ap" patternTransform="matrix(.68616 0 0 .53915 6.5447 226.56)" xlink:href="#a"/>
  <pattern id="r" patternTransform="matrix(.68616 0 0 .53915 1247.8 818.56)" xlink:href="#k"/>
  <pattern id="k" patternTransform="matrix(.68616 0 0 .53915 1247.8 818.56)" xlink:href="#ah"/>
  <pattern id="ah" patternTransform="matrix(.68616 0 0 .53915 7.5447 226.06)" xlink:href="#a"/>
  <pattern id="s" patternTransform="matrix(.68616 0 0 .53915 1225.9 817.06)" xlink:href="#g"/>
  <pattern id="g" patternTransform="matrix(.68616 0 0 .53915 1225.9 817.06)" xlink:href="#ak"/>
  <pattern id="ak" patternTransform="matrix(.68616 0 0 .53915 7.5447 226.06)" xlink:href="#a"/>
  <pattern id="t" patternTransform="matrix(.68616 0 0 .53915 1209.9 863.06)" xlink:href="#f"/>
  <pattern id="f" patternTransform="matrix(.68616 0 0 .53915 1209.9 863.06)" xlink:href="#v"/>
  <pattern id="v" patternTransform="matrix(.68616 0 0 .53915 -8.4553 272.06)" xlink:href="#ad"/>
  <pattern id="ad" patternTransform="matrix(.68616 0 0 .53915 171.54 226.56)" xlink:href="#al"/>
  <pattern id="al" patternTransform="matrix(.68616 0 0 .53915 6.5447 226.56)" xlink:href="#a"/>
  <pattern id="u" patternTransform="matrix(.68616 0 0 .53915 1640.7 982)" xlink:href="#e"/>
  <pattern id="e" patternTransform="matrix(.68616 0 0 .53915 1640.7 982)" xlink:href="#j"/>
  <pattern id="j" patternTransform="matrix(.68616 0 0 .53915 -8.4553 272.06)" xlink:href="#x"/>
  <pattern id="x" patternTransform="matrix(.68616 0 0 .53915 -8.4553 272.06)" xlink:href="#af"/>
  <pattern id="af" patternTransform="matrix(.68616 0 0 .53915 171.54 226.56)" xlink:href="#am"/>
  <pattern id="am" patternTransform="matrix(.68616 0 0 .53915 6.5447 226.56)" xlink:href="#a"/>
  <radialGradient cx="348" cy="471.36" gradientTransform="matrix(2.586761236190796,0.9440063238143921,-0.43088430166244507,2.556528329849243,-484.2257385253906,-1476.6534423828125)" gradientUnits="userSpaceOnUse" id="c" r="22.5">
   <stop offset="0" stop-color="#dcdcd5"/>
   <stop offset="1" stop-color="#fff" stop-opacity="0"/>
  </radialGradient>
 </defs>
 <g class="layer">
  <title>Layer 1</title>
  <g id="svg_13">
   <path d="m-3.244921,-4.422347l0,228.422134l264.422461,0l-0.035308,-79.113262c-0.147724,-11.887521 -1.545805,-24.045343 -4.021918,-36.088144c0.128362,-35.611953 0.594085,-71.383786 1.210152,-109.198409c-20.92737,-1.047666 -45.925407,-1.374973 -70.580615,-1.329884c-2.086017,-1.033357 -4.175337,-1.923627 -6.299851,-2.695885l-184.69492,0.003451z" fill="url(#bc)" filter="url(#bh)" id="svg_14" opacity="0.75"/>
   <path d="m258.359793,-0.407592c-1.234991,75.806679 -1.877335,143.473913 -0.374037,217.894545l-155.696455,-23.586459l-25.776358,-193.448812s112.942203,-4.30347 181.839056,-0.854206l0.007793,-0.005068z" fill="url(#bd)" id="svg_15"/>
   <path d="m195.073715,10.725867l52.387959,0.695601l-1.15385,88.62587l-52.387959,-0.695601l1.15385,-88.62587z" fill="url(#as)" id="svg_16" opacity="0.75"/>
   <path d="m-3.205565,-4.429992l0,228.429996l264.422547,0l0,-78.573792c-4.608497,-76.875168 -48.007435,-128.903608 -79.727535,-149.849978l-184.695012,-0.006227z" fill="url(#be)" id="svg_17"/>
   <path d="m161.977447,-4.429992l96.883001,161.892272l2.349135,-1.437728l0,-10.603446c-0.896482,-14.95511 -3.265852,-28.95381 -6.726911,-41.982402l-57.162278,-95.503987c-5.442594,-4.890018 -10.784933,-9.027736 -15.83847,-12.364834l-19.5046,0l0.000123,0.000125z" fill="url(#bf)" id="svg_18"/>
   <path d="m185.370143,-1.74009c-15.733653,5.414549 -27.568113,18.737162 -30.716323,37.418285c-5.354301,31.768245 16.404482,67.023401 48.548784,78.754364c19.922635,7.270457 39.143613,3.782053 52.179152,-7.476434c-13.121859,-53.119345 -44.515178,-90.353322 -70.01038,-108.695717l-0.001233,-0.000498z" fill="url(#c)" id="svg_19"/>
   <path d="m197.319285,63.054179l35.877021,0" fill="none" id="svg_20" stroke="#716c61" stroke-linecap="round" stroke-width="1.3854"/>
   <path d="m196.776703,91.584578l52.392486,0l0,88.633528l-52.392486,0l0,-88.633528z" fill="url(#at)" id="svg_21"/>
   <path d="m187.577466,21.186347l18.843636,0l0,30.042224l-18.843636,0l0,-30.042224z" id="svg_22" opacity="0.35"/>
   <path d="m8.681919,55.146364l210.139655,0l0,4.025763l-210.139655,0l0,-4.025763z" fill="#716c61" id="svg_23"/>
   <path d="m9.572272,50.550031l0,-1.8646c1.082612,-0.134794 1.853782,-0.344469 2.313522,-0.629026s0.689597,-0.531679 0.68961,-0.741355l0,-21.521635c-0.474575,-0.449276 -0.967683,-0.823695 -1.479314,-1.123258s-1.019586,-0.486723 -1.523805,-0.561629l0,-1.864613l6.718106,0c0.222446,0.000025 0.404113,0.018804 0.545012,0.056164s0.285472,0.116064 0.433782,0.235889s0.307718,0.295815 0.478274,0.527931l0.678487,0.9323l13.280491,18.623626l0,-17.118464c-0.000025,-0.089788 -0.044516,-0.198418 -0.133475,-0.32574s-0.248429,-0.254582 -0.478274,-0.381904s-0.537625,-0.250833 -0.923179,-0.370683s-0.875,-0.224619 -1.468191,-0.314507l0,-1.864613l9.565516,0l0,1.864613c-1.067802,0.149788 -1.835272,0.36696 -2.302399,0.651492s-0.700757,0.531692 -0.700733,0.741342l0,25.722627c-0.815686,-0.0599 -1.553499,-0.175977 -2.213415,-0.348205s-1.245769,-0.378168 -1.757387,-0.617793s-0.952861,-0.509213 -1.323605,-0.808752s-0.6748,-0.614045 -0.912056,-0.943533l-12.924569,-18.061997l0,16.871342c-0.000012,0.089912 0.048191,0.198443 0.144598,0.32574s0.263226,0.254619 0.50052,0.381916s0.544999,0.250858 0.923179,0.370671s0.856441,0.217172 1.434822,0.292054l0,1.8646l-9.565516,0z" fill="#716c61" id="svg_24"/>
   <path d="m62.560785,43.271317c-0.059339,0.644007 -0.126076,1.344179 -0.200213,2.10049s-0.155733,1.482709 -0.244705,2.179132s-0.17428,1.314204 -0.255828,1.853368s-0.152034,0.92108 -0.211336,1.145724l-21.644754,0l0,-1.8646c1.008451,-0.209675 1.761086,-0.438068 2.257907,-0.68519s0.745212,-0.475515 0.745224,-0.68519l0,-21.813689c0,-0.179688 -0.233582,-0.404345 -0.700733,-0.673945s-1.234621,-0.509189 -2.302399,-0.718889l0,-1.864613l20.154318,0l0.956548,0.786286c-0.029682,0.389426 -0.074173,0.898627 -0.133475,1.527628s-0.1335,1.273046 -0.222459,1.93201s-0.181691,1.280531 -0.278073,1.8646s-0.189102,1.018452 -0.278073,1.302984l-1.890862,0c-0.074173,-1.392821 -0.259552,-2.489866 -0.556135,-3.291145s-0.719291,-1.201863 -1.26799,-1.201888l-7.251995,0l0,8.873739l8.786923,0l0.800839,0.853683c-0.118665,0.209688 -0.263251,0.45681 -0.433782,0.741355s-0.348535,0.572874 -0.533889,0.864903s-0.370781,0.557893 -0.556135,0.797519s-0.359646,0.419363 -0.522766,0.539164c-0.222471,-0.224644 -0.463464,-0.411854 -0.722979,-0.561629s-0.556147,-0.27706 -0.889823,-0.381916s-0.726703,-0.1797 -1.179007,-0.224644s-0.989929,-0.067372 -1.612789,-0.067372l-3.136594,0l0,9.592628c-0.000012,0.224657 0.051891,0.423099 0.155721,0.595328s0.318841,0.322004 0.645118,0.449301s0.785992,0.224657 1.37922,0.292054s1.379195,0.10112 2.358013,0.10112l1.979846,0c0.682174,0.000012 1.264266,-0.093648 1.746264,-0.280808s0.908332,-0.482999 1.279113,-0.887369s0.708119,-0.921067 1.012163,-1.550106s0.611725,-1.385337 0.923179,-2.268982l1.846395,0.628964z" fill="#716c61" id="svg_25"/>
   <path d="m102.246548,24.108527c-0.652566,0.134819 -1.193866,0.262116 -1.623912,0.381904s-0.771207,0.235914 -1.023286,0.348218s-0.433819,0.220933 -0.545012,0.32574s-0.174292,0.217185 -0.18909,0.336973l-5.094194,23.723233c-0.074186,0.314507 -0.244729,0.587831 -0.511643,0.819972s-0.570994,0.426835 -0.912056,0.584095s-0.685923,0.284557 -1.034408,0.381916s-0.63402,0.16848 -0.856441,0.213411l-7.6969,-19.859213l-6.38443,17.859818c-0.103818,0.314507 -0.292908,0.584095 -0.567257,0.808739s-0.585804,0.415615 -0.934302,0.572862s-0.708156,0.284557 -1.0789,0.381916s-0.704444,0.175977 -1.00104,0.235877l-5.783804,-25.542902c-0.074149,-0.374395 -0.341099,-0.681417 -0.800839,-0.921067s-1.216087,-0.456773 -2.26903,-0.651492l0,-1.864613l11.322903,0l0,1.864613c-0.72669,0.074969 -1.286537,0.168517 -1.679526,0.280808s-0.678499,0.235914 -0.856441,0.370683s-0.274374,0.280833 -0.289196,0.438068s-0.007399,0.31828 0.022246,0.482999l3.603758,15.20892l6.250955,-18.646092l2.558226,0l7.318732,18.646092l3.381299,-15.388645c0.029595,-0.179688 -0.037118,-0.336948 -0.200201,-0.471767s-0.40045,-0.254582 -0.711856,-0.359438s-0.682223,-0.202166 -1.112269,-0.292054l-1.401465,-0.269576l0,-1.864613l10.099405,0l-0.000025,1.864613z" fill="#716c61" id="svg_26"/>
   <path d="m124.33622,42.080661c-0.000012,0.67397 -0.103831,1.362896 -0.31143,2.066804s-0.515367,1.396582 -0.923179,2.078024s-0.926916,1.325449 -1.557187,1.93201s-1.371808,1.134491 -2.224538,1.583792s-1.813014,0.808739 -2.880779,1.078327s-2.254207,0.40437 -3.559254,0.40437c-0.548736,0 -1.18643,-0.052428 -1.913108,-0.15726s-1.468203,-0.250858 -2.224538,-0.438068s-1.494148,-0.415602 -2.213415,-0.68519s-1.338427,-0.576598 -1.857493,-0.921067c-0.074112,-0.029888 -0.133475,-0.183461 -0.177955,-0.460534s-0.074112,-0.625278 -0.089033,-1.044629s-0.022197,-0.891117 -0.022197,-1.415312s0.022197,-1.059597 0.066713,-1.606258s0.103831,-1.082063 0.177955,-1.606258s0.163132,-0.995949 0.26695,-1.415312l1.801879,0.112328c0.341087,0.883645 0.752623,1.707366 1.234621,2.471173s1.023273,1.426545 1.623912,1.988162s1.249431,1.003446 1.946465,1.325449s1.423699,0.482999 2.180046,0.482999c0.667352,0 1.301347,-0.082316 1.901985,-0.24711s1.130791,-0.415602 1.590543,-0.752587s0.82306,-0.763808 1.090023,-1.280518s0.400401,-1.134479 0.400426,-1.85338c-0.000025,-0.913571 -0.200225,-1.703592 -0.600626,-2.370066s-0.930615,-1.25804 -1.590555,-1.77475s-1.412588,-0.984716 -2.257907,-1.404079s-1.709196,-0.838689 -2.591583,-1.258052s-1.746264,-0.861142 -2.591583,-1.325437s-1.597967,-0.999685 -2.257907,-1.60627s-1.190142,-1.306695 -1.590555,-2.10049s-0.600626,-1.737278 -0.600614,-2.830612c-0.000012,-0.464257 0.092732,-0.973471 0.278061,-1.527628s0.467151,-1.108265 0.845331,-1.662422s0.856441,-1.089535 1.434822,-1.606258s1.260567,-0.973471 2.046571,-1.370381s1.683226,-0.715116 2.691701,-0.954766s2.128131,-0.359413 3.359053,-0.359451c0.845306,0.000037 1.668379,0.052428 2.46923,0.15726s1.546039,0.247147 2.235661,0.426835s1.297635,0.396922 1.824125,0.651492s0.923167,0.531704 1.19013,0.831217c0.074112,0.0599 0.092609,0.205952 0.055615,0.438068s-0.10753,0.50549 -0.211336,0.819972s-0.233594,0.655265 -0.38929,1.022175s-0.318878,0.718901 -0.489397,1.055861s-0.337412,0.636536 -0.50052,0.898602s-0.304043,0.44559 -0.422672,0.550396l-1.690649,-0.134782c-0.29662,-0.763795 -0.652542,-1.404054 -1.067777,-1.920777s-0.856454,-0.932275 -1.323593,-1.24682s-0.941738,-0.53539 -1.423711,-0.662725s-0.930615,-0.190921 -1.345838,-0.190946c-0.711868,0.000025 -1.319905,0.089912 -1.824125,0.269576s-0.919492,0.423124 -1.245744,0.730122s-0.563558,0.659001 -0.711856,1.055861s-0.222459,0.805028 -0.222446,1.224354c-0.000012,0.703933 0.2039,1.332959 0.611749,1.887066c0.407812,0.55417 0.945413,1.063383 1.612789,1.52764s1.423687,0.913595 2.26903,1.347903l2.602706,1.302984c0.889798,0.449326 1.757375,0.936061 2.602706,1.460243s1.601654,1.119522 2.26903,1.785971s1.20494,1.426557 1.612801,2.280215s0.611725,1.834675 0.611737,2.94294l0.000025,0z" fill="#716c61" id="svg_27"/>
   <path d="m8.842228,91.958176l52.392486,0l0,130.547437l-52.392486,0l0,-130.547437z" fill="url(#au)" id="svg_28"/>
   <path d="m71.48582,163.564373l52.392486,0l0,59.522807l-52.392486,0l0,-59.522807z" fill="url(#av)" id="svg_29"/>
   <path d="m134.133111,163.564373l52.392486,0l0,58.947467l-52.392486,0l0,-58.947467z" fill="url(#aw)" id="svg_30"/>
   <path d="m196.776703,203.825736l52.392486,0l0,18.687349l-52.392486,0l0,-18.687349z" fill="url(#ax)" id="svg_31"/>
   <path d="m72.871871,155.096162l77.31551,0" fill="none" id="svg_32" stroke="#716c61" stroke-linecap="round" stroke-width="2.2472"/>
   <path d="m71.342775,74.710422l115.3197,0l0,76.489117l-115.3197,0l0,-76.489117z" fill="#a3c093" id="svg_33"/>
   <path d="m71.342775,74.710422l115.3197,0l0,50.322345s-23.624526,4.708824 -30.769348,2.588035s-28.856746,16.698565 -38.758873,13.366075s-11.900063,-14.093345 -23.030152,-14.80318s-22.761327,10.35189 -22.761327,10.35189l0,-61.825164z" fill="#bedaae" id="svg_34"/>
   <path d="m71.342775,74.710422l115.3197,0l0,41.51665s-16.435311,-12.788244 -26.111773,-12.809415c-13.327794,-0.028767 -22.827917,15.713513 -36.039796,17.486856c-12.383208,1.661637 -24.357012,-6.605205 -36.84627,-6.913298c-5.489083,-0.135379 -16.323095,2.236604 -16.323095,2.236604l0.001233,-41.517398z" fill="#b3b3b3" id="svg_35"/>
   <path d="m71.342775,74.710422l115.3197,0l0,30.014827s-1.219145,-11.12698 -5.496359,-13.038555c-6.848745,-3.060885 -14.267448,4.647055 -21.218667,7.460868c-5.866301,2.374461 -10.95264,7.458626 -17.25535,7.935835c-5.866671,0.44422 -11.366976,-6.6864 -16.972961,-4.885909c-3.883409,1.247193 -3.822616,8.240317 -7.661632,9.62076c-7.099196,2.552668 -14.923479,-2.464748 -22.112695,-4.745062c-6.749354,-2.140963 -12.525019,-9.139566 -19.553926,-8.332222c-2.062676,0.236948 -5.047742,3.683921 -5.047742,3.683921l-0.00037,-27.714463z" fill="#f2f2f2" id="svg_36"/>
   <path d="m71.342775,74.710422l115.3197,0l0,25.413351s-1.725905,-9.420511 -5.496359,-10.738065c-7.344961,-2.56674 -13.972727,6.92214 -21.218667,9.761357c-5.63558,2.208211 -11.215423,5.892381 -17.25535,5.635345c-6.129453,-0.260759 -11.026505,-8.708559 -16.972961,-7.186273c-3.950122,1.011154 -3.980828,7.854764 -7.661632,9.62076c-6.658101,3.194384 -14.971572,1.698873 -22.112695,-0.144246c-7.172321,-1.851051 -19.553926,-10.632711 -19.553926,-10.632711l-5.047742,1.383432l-0.00037,-23.112949z" fill="#dae5eb" id="svg_37"/>
   <path d="m11.530476,63.054179l35.877021,0" fill="none" id="svg_38" stroke="#716c61" stroke-linecap="round" stroke-width="1.3854"/>
   <path d="m11.530476,67.089032l18.508222,0" fill="none" id="svg_39" stroke="#716c61" stroke-linecap="round" stroke-width="1.3854"/>
   <path d="m178.575533,155.096162l6.700151,0" fill="none" id="svg_40" stroke="#716c61" stroke-linecap="round" stroke-width="2.2472"/>
   <path d="m130.557,28.122808l26.765338,0l0,24.154327l-26.765338,0l0,-24.154327z" fill="url(#ay)" id="svg_41"/>
   <path d="m24.931026,74.710422l36.304921,0l0,17.540405l-36.304921,0l0,-17.540405z" fill="url(#az)" id="svg_42"/>
   <path d="m22.516411,82.835447c-0.000012,1.071391 -0.108233,2.029208 -0.324637,2.873451s-0.513492,1.589932 -0.891154,2.237052s-0.819028,1.195662 -1.323999,1.645635s-1.048183,0.81854 -1.629547,1.105674s-1.183976,0.497121 -1.807773,0.629973s-1.237026,0.199277 -1.839601,0.199277l-7.62576,0l0,-1.067094c0.577135,-0.120049 1.007859,-0.250709 1.292172,-0.392128s0.426482,-0.272128 0.426482,-0.392128l0,-12.895168l-1.718666,0.244271l-0.178226,-1.311365c0.432845,-0.102864 0.950567,-0.201406 1.553154,-0.295702s1.232759,-0.177832 1.890529,-0.250709s1.319757,-0.128542 1.986011,-0.167135s1.283688,-0.057783 1.852339,-0.057908c1.340967,0.000025 2.529173,0.17787 3.56463,0.53356s1.907485,0.872114 2.616184,1.549209s1.245485,1.504241 1.610446,2.481323s0.547404,2.087065 0.547429,3.329863l-0.000012,0.00005zm-9.293497,-6.428294l-0.426482,0.006227c-0.148532,0.003736 -0.294943,0.011208 -0.439208,0.019303l0,12.650897c-0.000012,0.145715 0.008509,0.278567 0.025464,0.398554s0.082744,0.222851 0.197327,0.308554s0.294918,0.152141 0.541066,0.199277s0.594103,0.070734 1.043928,0.070734c0.458297,0 0.952676,-0.124283 1.483136,-0.37285s1.020573,-0.642824 1.47041,-1.182797s0.825366,-1.234229 1.126672,-2.082769s0.451934,-1.877066 0.451946,-3.085592c-0.000012,-2.288459 -0.462564,-4.015526 -1.387654,-5.1812s-2.287317,-1.748486 -4.086594,-1.748499l-0.000012,0.000162z" fill="#716c61" id="svg_43"/>
   <path d="m209.058793,186.129665l40.110396,0l0,18.484361l-40.110396,0l0,-18.484361z" fill="url(#ba)" id="svg_44"/>
   <path d="m194.899775,203.288739l0,-1.067094c0.577135,-0.120049 1.007859,-0.250709 1.292184,-0.392128s0.426482,-0.272128 0.426482,-0.392128l0,-12.48375c0,-0.102864 -0.133673,-0.231406 -0.401018,-0.385702s-0.706565,-0.291406 -1.317649,-0.411406l0,-1.067107l11.661438,0l0.521952,0.449986c-0.008632,0.222863 -0.029719,0.514282 -0.06363,0.874243s-0.074235,0.728565 -0.120971,1.105674s-0.097665,0.732837 -0.152774,1.067094s-0.10827,0.58285 -0.159137,0.745688l-1.107583,0c-0.025403,-0.797095 -0.125189,-1.424926 -0.299172,-1.883492s-0.42224,-0.687818 -0.744744,-0.68783l-4.252094,0l0,5.078349l4.63401,0l0.4965,0.488554c-0.076331,0.154296 -0.1655,0.314993 -0.267345,0.482128s-0.207945,0.327844 -0.318262,0.482115s-0.218562,0.295715 -0.324637,0.42427s-0.201582,0.227147 -0.286446,0.295702c-0.127322,-0.128555 -0.263115,-0.23569 -0.407393,-0.321418s-0.311911,-0.158555 -0.502863,-0.218555s-0.415877,-0.102864 -0.674738,-0.128567s-0.566518,-0.038605 -0.922982,-0.038605l-1.425845,0l0,6.132591c-0.000012,0.051432 0.031815,0.107098 0.095445,0.167135s0.173972,0.122166 0.331,0.186425s0.371311,0.132851 0.642898,0.205703s0.615325,0.147857 1.031202,0.224993l0,1.067094l-7.38383,0.000037z" fill="#716c61" id="svg_45"/>
   <path d="m212.684229,74.710422l33.062992,0l0,17.466931l-33.062992,0l0,-17.466931z" fill="url(#bb)" id="svg_46"/>
   <path d="m181.485747,-4.429992c43.791323,15.916501 80.115975,88.933652 79.727535,152.427801c-8.589571,-58.28869 -24.988381,-90.672126 -70.778627,-86.266165c6.589909,-28.070875 4.287387,-53.694685 -8.948908,-66.155409l0,-0.006227z" fill="url(#bg)" id="svg_47"/>
   <path d="m209.007839,75.29448c0.04242,0.034246 0.044516,0.122166 0.006166,0.263561s-0.099761,0.315005 -0.184601,0.520695s-0.186735,0.426424 -0.305535,0.662114s-0.239772,0.460708 -0.362827,0.674966s-0.239784,0.404992 -0.350101,0.572115s-0.203703,0.285005 -0.280071,0.35356l-0.929357,-0.205703c-0.280083,-0.462825 -0.560167,-0.852811 -0.840226,-1.169958s-0.568663,-0.572102 -0.865702,-0.764966s-0.602599,-0.332116 -0.916619,-0.417832s-0.649274,-0.128555 -1.005738,-0.128567c-0.212187,0.000012 -0.454067,0.042839 -0.725654,0.128567s-0.551671,0.229289 -0.840226,0.430696s-0.568651,0.467134 -0.840238,0.797108s-0.515601,0.745688 -0.732017,1.247081s-0.390425,1.090681 -0.521964,1.767789s-0.19734,1.461377 -0.197327,2.352755c-0.000012,1.13139 0.123068,2.099917 0.36919,2.905593s0.577123,1.465661 0.993,1.979918s0.891154,0.893533 1.425857,1.137804s1.094845,0.366412 1.680464,0.366412c0.407381,0 0.770208,-0.034246 1.088482,-0.102864s0.60895,-0.162851 0.872065,-0.282838l0,-3.7927c-0.000012,-0.094271 -0.011098,-0.186413 -0.031815,-0.276412s-0.089156,-0.177845 -0.20369,-0.263561s-0.297064,-0.171419 -0.547429,-0.257135s-0.608962,-0.171419 -1.075756,-0.257135l0,-1.067094l6.505451,0l0,1.067094c-0.246147,0.060025 -0.445596,0.128567 -0.598345,0.205703s-0.275854,0.162864 -0.369203,0.257135s-0.157028,0.190709 -0.190964,0.289277s-0.050929,0.199277 -0.050929,0.302128l0,3.741268c-0.628064,0.522837 -1.222167,0.953533 -1.782321,1.292087s-1.088494,0.606399 -1.584982,0.803534s-0.965427,0.334283 -1.406756,0.411418s-0.852976,0.115691 -1.234893,0.115691c-0.628051,0 -1.24974,-0.070734 -1.865065,-0.212129s-1.200944,-0.355702 -1.756844,-0.642837s-1.069393,-0.64925 -1.540428,-1.086372s-0.878428,-0.947107 -1.222167,-1.529944s-0.613192,-1.240655 -0.808398,-1.973479s-0.292809,-1.540642 -0.292809,-2.423477c0,-1.422784 0.227034,-2.697723 0.681101,-3.824829s1.082106,-2.082757 1.884154,-2.867025s1.752602,-1.382062 2.851702,-1.793492s2.293668,-0.617096 3.583731,-0.617121c0.280059,0.000025 0.621676,0.030012 1.024827,0.090037s0.816882,0.145728 1.241256,0.257135s0.838092,0.248567 1.241256,0.411406s0.740489,0.347147 1.012101,0.552837l0.000197,-0.000012z" fill="#716c61" id="svg_48"/>
   <path d="m74.244086,61.959152c-0.201483,0 -0.379499,0.032254 -0.569477,0.071357c-0.144993,0.029888 -0.29112,0.09315 -0.427111,0.143773c-0.076307,0.028767 -0.14043,0.072478 -0.213555,0.108094c-0.110477,0.052926 -0.218562,0.078206 -0.320272,0.143785l-0.142366,0.108094c-0.053531,0.039103 -0.127334,0.065504 -0.178016,0.108094c-0.064925,0.055168 -0.118456,0.119551 -0.177905,0.179663s-0.125053,0.116812 -0.178016,0.179775c-0.066059,0.079327 -0.120392,0.165404 -0.177905,0.251556c-0.083151,0.123163 -0.149543,0.259376 -0.213555,0.395441c-0.033036,0.071357 -0.078588,0.141706 -0.107061,0.215665l-0.035305,0.071357c-0.043283,0.123536 -0.079723,0.264893 -0.107061,0.395328l0,0.035616c-0.03417,0.180809 -0.070622,0.348168 -0.070622,0.539226c0,0.758789 0.316523,1.45444 0.783033,1.976879l0.070622,0.071357c0.046699,0.049439 0.092251,0.097758 0.142366,0.143773c0.088836,0.081693 0.187018,0.146089 0.284745,0.215665c0.091117,0.064383 0.187018,0.126189 0.284745,0.179788l0.177905,0.108094c0.115262,0.052926 0.233261,0.070112 0.355922,0.108094l0.213555,0.071357c0.200916,0.043711 0.391005,0.071357 0.605127,0.071357s0.406616,-0.026401 0.605016,-0.071357c0.379956,-0.078206 0.721647,-0.219451 1.032238,-0.431331c0.025057,-0.017185 0.046699,-0.052926 0.070622,-0.071357c0.729502,-0.535888 1.210143,-1.391651 1.210143,-2.37232c0,-0.368654 -0.055812,-0.717158 -0.178016,-1.042449c-0.027339,-0.073599 -0.072891,-0.144806 -0.107061,-0.215665c-0.210596,-0.447433 -0.532347,-0.825626 -0.925411,-1.114217l-0.142366,-0.108094c-0.099095,-0.064383 -0.213099,-0.09203 -0.320272,-0.143773c-0.206946,-0.098879 -0.409687,-0.204395 -0.640666,-0.251668c-0.190089,-0.039103 -0.403644,-0.071357 -0.605127,-0.071357l0.00111,0.000399zm29.541879,0c-0.201483,0 -0.415038,0.032254 -0.605029,0.071357c-1.329968,0.274781 -2.313571,1.451115 -2.313571,2.875543c0,1.627777 1.306735,2.947423 2.918599,2.947423c0.244643,0 0.485537,-0.044832 0.711843,-0.108094s0.441576,-0.145155 0.640666,-0.251668c0.924499,-0.494593 1.566077,-1.457902 1.566077,-2.587985c0,-1.122038 -0.616743,-2.090054 -1.530427,-2.587985c-0.011098,-0.011208 -0.026143,0 -0.035268,0c-0.152848,-0.081693 -0.331431,-0.125603 -0.4983,-0.179663c-0.047846,-0.014944 -0.093349,-0.058655 -0.142366,-0.071357c-0.23246,-0.060896 -0.460023,-0.108094 -0.711856,-0.108094l-0.00037,0.000523zm30.8232,0c-0.201483,0 -0.379499,0.032254 -0.569477,0.071357c-0.144993,0.029888 -0.29112,0.09315 -0.427111,0.143773c-0.076331,0.028767 -0.140442,0.072478 -0.213555,0.108094c-0.110489,0.052926 -0.218574,0.078206 -0.320284,0.143785l-0.142366,0.108094c-0.053518,0.039103 -0.127334,0.065504 -0.178016,0.108094c-0.064863,0.055168 -0.118505,0.119551 -0.177905,0.179663s-0.125065,0.116812 -0.178029,0.179775c-0.066096,0.079327 -0.120355,0.165404 -0.177905,0.251556c-0.083114,0.123163 -0.149543,0.259376 -0.213555,0.395441c-0.033048,0.071357 -0.078551,0.141706 -0.107037,0.215665l-0.035268,0.071357c-0.043283,0.123536 -0.080894,0.264893 -0.107037,0.395328l0,0.035616c-0.034158,0.180809 -0.070659,0.348168 -0.070659,0.539226c0,0.758789 0.316523,1.45444 0.783045,1.976879l0.070659,0.071357c0.046736,0.049439 0.092239,0.097758 0.142366,0.143773c0.088786,0.081693 0.187018,0.146089 0.284745,0.215665c0.091129,0.064383 0.187018,0.126189 0.284745,0.179788l0.177905,0.108094c0.115299,0.052926 0.233261,0.070112 0.355922,0.108094l0.213555,0.071357c0.200916,0.043711 0.391005,0.071357 0.60514,0.071357s0.406604,-0.026401 0.605016,-0.071357c0.379956,-0.078206 0.721647,-0.219451 1.032238,-0.431331c0.025033,-0.017185 0.046736,-0.052926 0.070659,-0.071357c0.729502,-0.535888 1.210143,-1.391651 1.210143,-2.37232c0,-0.368654 -0.055861,-0.717158 -0.178016,-1.042449c-0.027376,-0.073599 -0.072879,-0.144806 -0.107037,-0.215665c-0.210596,-0.447433 -0.53236,-0.825626 -0.925411,-1.114217l-0.142366,-0.108094c-0.099145,-0.064383 -0.213099,-0.09203 -0.320284,-0.143773c-0.206946,-0.098879 -0.409687,-0.204395 -0.640666,-0.251668c-0.190089,-0.039103 -0.403644,-0.071357 -0.605127,-0.071357l0.000974,0.000399zm29.541879,0c-1.611864,0 -2.918599,1.319534 -2.918599,2.947436s1.306735,2.947423 2.918599,2.947423c0.244643,0 0.485537,-0.044832 0.711843,-0.108094c1.258902,-0.327122 2.206744,-1.466171 2.206744,-2.839653c0,-1.122038 -0.616743,-2.090054 -1.530427,-2.587985c-0.161381,-0.088543 -0.3566,-0.122166 -0.533938,-0.179663c-0.047846,-0.014944 -0.093349,-0.058655 -0.142379,-0.071357c-0.232349,-0.060896 -0.460023,-0.108094 -0.711843,-0.108094l0,-0.000012z" fill="none" id="svg_49" stroke="#716c61" stroke-width="0.46181"/>
   <path d="m81.309025,64.498756l13.09843,0" fill="none" id="svg_50" stroke="#716c61" stroke-linecap="round" stroke-width="1.3854"/>
   <path d="m106.695711,64.909713a2.918599,2.947436 0 0 1 -5.837199,0a2.918599,2.947436 0 1 1 5.837199,0z" fill="#330080" id="svg_51" opacity="0.25"/>
   <path d="m103.773165,61.958293c-1.611839,0 -2.918599,1.319671 -2.918599,2.947436s1.30676,2.947436 2.918599,2.947436c0.489298,0 0.947509,-0.14447 1.35251,-0.359438c-1.383338,-0.036862 -2.491439,-1.182088 -2.491439,-2.588035c0,-1.417429 1.127918,-2.568857 2.527077,-2.588035c-0.413448,-0.226824 -0.884298,-0.359438 -1.388024,-0.359438l-0.000123,0.000075z" fill="#d4aa00" id="svg_52" opacity="0.25"/>
   <path d="m106.46536,64.648282l-0.817043,-0.078829l-0.357105,0.746311l-0.178263,-0.809088l-0.813183,-0.112328l0.706874,-0.421231l-0.145474,-0.815738l0.615128,0.54874l0.723287,-0.391792l-0.326709,0.760371l0.592488,0.573584z" fill="#fae17a" id="svg_53" opacity="0.25"/>
   <path d="m104.394619,66.459346l-0.276853,-0.324968l-0.397959,0.14924l0.220498,-0.366337l-0.263522,-0.336088l0.413127,0.09863l0.235086,-0.35696l0.034775,0.427246l0.408811,0.115442l-0.391596,0.165491l0.017634,0.428305z" fill="#fae17a" id="svg_54" opacity="0.25"/>
   <path d="m110.925386,64.498756l9.538843,0" fill="none" id="svg_55" stroke="#716c61" stroke-linecap="round" stroke-width="1.3854"/>
   <path d="m122.88686,64.498756l2.562715,0" fill="none" id="svg_56" stroke="#716c61" stroke-linecap="round" stroke-width="1.3854"/>
   <path d="m77.180467,64.909713a2.918599,2.947436 0 0 1 -5.837199,0a2.918599,2.947436 0 1 1 5.837199,0z" fill="#5f8dd3" id="svg_57" opacity="0.25"/>
   <path d="m74.261621,61.983199c-1.422059,0 -2.588118,1.012537 -2.847447,2.372344l5.694771,0c-0.259231,-1.359771 -1.425265,-2.372344 -2.847447,-2.372344l0.000123,0z" fill="#fc0" id="svg_58" opacity="0.25"/>
   <path d="m76.184089,64.623288a1.281357,1.294017 0 0 1 -2.562715,0a1.281357,1.294017 0 1 1 2.562715,0z" fill="#fff6d5" id="svg_59" opacity="0.25"/>
   <path d="m72.108531,66.883466c0.534172,0.598229 1.275068,0.970544 2.135555,0.970544c0.852175,0 1.60195,-0.382327 2.135555,-0.970544l-4.271109,0z" fill="#2ca02c" id="svg_60" opacity="0.25"/>
   <path d="m141.679937,64.498756l13.09843,0" fill="none" id="svg_61" stroke="#716c61" stroke-linecap="round" stroke-width="1.3854"/>
   <path d="m171.287666,64.498756l9.538843,0" fill="none" id="svg_62" stroke="#716c61" stroke-linecap="round" stroke-width="1.3854"/>
   <path d="m183.24914,64.498756l2.562715,0" fill="none" id="svg_63" stroke="#716c61" stroke-linecap="round" stroke-width="1.3854"/>
   <path d="m137.548913,64.909713a2.918599,2.947436 0 0 1 -5.837199,0a2.918599,2.947436 0 1 1 5.837199,0z" fill="#5f8dd3" id="svg_64" opacity="0.25"/>
   <path d="m134.626367,61.983199c-1.422059,0 -2.588118,1.012537 -2.847447,2.372344l5.694771,0c-0.259231,-1.359771 -1.425265,-2.372344 -2.847447,-2.372344l0.000123,0z" fill="#fc0" id="svg_65" opacity="0.25"/>
   <path d="m136.550068,64.623288a1.281357,1.294017 0 0 1 -2.562715,0a1.281357,1.294017 0 1 1 2.562715,0z" fill="#fff6d5" id="svg_66" opacity="0.25"/>
   <path d="m132.473611,66.883466c0.534172,0.598229 1.275068,0.970544 2.135555,0.970544c0.852175,0 1.60195,-0.382327 2.135555,-0.970544l-4.271109,0z" fill="#2ca02c" id="svg_67" opacity="0.25"/>
   <path d="m167.057991,64.909713a2.918599,2.947436 0 0 1 -5.837199,0a2.918599,2.947436 0 1 1 5.837199,0z" fill="#330080" id="svg_68" opacity="0.25"/>
   <path d="m164.135445,61.958293c-1.611839,0 -2.918599,1.319671 -2.918599,2.947436s1.30676,2.947436 2.918599,2.947436c0.489298,0 0.947509,-0.14447 1.35251,-0.359438c-1.383338,-0.036862 -2.491439,-1.182088 -2.491439,-2.588035c0,-1.417429 1.127918,-2.568857 2.527077,-2.588035c-0.413448,-0.226824 -0.884298,-0.359438 -1.388024,-0.359438l-0.000123,0.000075z" fill="#d4aa00" id="svg_69" opacity="0.25"/>
   <path d="m166.830439,64.648282l-0.817043,-0.078829l-0.357105,0.746311l-0.178263,-0.809088l-0.813183,-0.112328l0.706874,-0.421231l-0.145474,-0.815738l0.615128,0.54874l0.723287,-0.391792l-0.326709,0.760371l0.592488,0.573584z" fill="#fae17a" id="svg_70" opacity="0.25"/>
   <path d="m164.759698,66.459346l-0.276853,-0.324968l-0.397959,0.14924l0.220498,-0.366337l-0.263522,-0.336088l0.413127,0.09863l0.235086,-0.35696l0.034775,0.427246l0.408811,0.115442l-0.391596,0.165491l0.017634,0.428305z" fill="#fae17a" id="svg_71" opacity="0.25"/>
   <path d="m210.032974,14.660843c1.748348,12.201821 1.727138,16.219115 1.671893,19.392204c-0.055738,0.734181 0.554334,1.453668 1.281234,1.510081s1.4392,-0.560272 1.495061,-1.294391c0.25854,-3.502477 0.115052,-5.0148 -1.209132,-16.192963c-1.07985,-1.161316 -2.135555,-2.319418 -3.23897,-3.414682l-0.000086,-0.000249zm7.011766,7.620145c1.088395,10.396473 0.783156,7.392873 0.746359,12.958854c-0.162072,0.765364 0.441008,1.603605 1.211858,1.684551s1.531562,-0.614331 1.528849,-1.397006c0.920737,-8.802083 0.346698,-0.308367 -0.390548,-9.471694c-1.018353,-1.286421 -2.051948,-2.546441 -3.096542,-3.774082l0.000025,-0.000623zm6.833824,8.626617c0.470505,4.974327 0.23553,4.962621 -0.143402,6.703959c-0.299209,0.717046 0.129837,1.648561 0.865616,1.879569s1.612086,-0.290896 1.768202,-1.05291c0.228822,-1.270232 1.001373,-1.393145 0.64169,-3.001732c-1.027232,-1.537728 -2.070568,-3.05142 -3.13218,-4.528999l0.000074,0.000112zm6.299874,9.489253c0.01825,5.491137 -0.457076,11.222995 -1.637242,17.324964c-0.22495,0.745925 0.299777,1.629633 1.057296,1.780566s1.575215,-0.465029 1.647724,-1.241315c0.906606,-4.687653 1.411947,-9.16659 1.601728,-13.4794c-0.872102,-1.486918 -1.766352,-2.941956 -2.669505,-4.385164l0,0.000349zm5.054154,8.518896c-0.028486,4.239834 -0.387589,8.477925 -1.24572,12.688618c-0.149087,0.72463 0.368006,1.520916 1.085547,1.671475s1.505912,-0.371742 1.654999,-1.096384c0.565839,-2.776203 0.935548,-5.537089 1.138967,-8.303081c-0.862768,-1.674464 -1.732687,-3.32975 -2.633867,-4.960379l0.000074,-0.000249zm4.484689,8.662482c0.068316,3.240585 0,6.421395 -0.284745,9.489253c-0.064863,0.734069 0.536799,1.461763 1.2636,1.527765s1.447462,-0.54209 1.512695,-1.276085c0.119121,-1.295263 0.194429,-2.598122 0.249206,-3.918042c-0.887369,-1.966742 -1.801373,-3.903721 -2.740657,-5.823016l-0.000099,0.000125zm4.769422,10.45986c-0.060301,1.255537 -0.108147,2.559392 -0.177905,3.774082c-0.037611,1.045662 1.36891,1.801861 2.206707,1.186222c-0.656734,-1.669358 -1.334506,-3.317422 -2.028888,-4.960255l0.000086,-0.00005z" fill="#716c61" id="svg_72" opacity="0.75"/>
   <path d="m225.056893,58.093625l-1.045679,-0.15264c-0.035268,-0.59397 -0.101364,-1.043246 -0.199547,-1.347591s-0.205688,-0.465154 -0.323354,-0.482402c-3.719278,-1.761214 -7.746423,-3.364956 -12.234515,-2.541871c-0.100254,-0.014944 -0.245901,0.100124 -0.435422,0.345652s-0.386565,0.664593 -0.591587,1.258102l-1.04579,-0.152515c0.741118,-2.744199 0.720278,-4.718998 1.001262,-6.998503l1.045914,0.15264c0.035268,0.59397 0.103707,1.04347 0.205811,1.348513s0.211965,0.466063 0.329619,0.483211c1.73429,-0.12929 3.468593,0.566586 5.202896,0.695763l0.892153,-6.234982c-1.734414,-0.156886 -3.468716,-0.78778 -5.203019,-0.695763c-0.100254,-0.014944 -0.245901,0.100124 -0.435422,0.345752s-0.386565,0.664481 -0.591575,1.258102l-1.045914,-0.152627c0.725174,-1.542323 1.046814,-3.899698 1.001373,-6.998503l1.045803,0.15264c0.035268,0.594082 0.103584,1.043595 0.205811,1.348513s0.212076,0.466187 0.329606,0.483323c3.960296,-0.238903 8.01785,0.967219 12.234639,2.541983c0.100254,0.014944 0.243743,-0.101245 0.428936,-0.346674s0.380412,-0.665402 0.585422,-1.259036l1.045692,0.15264c-0.36538,3.04543 -0.592155,4.404068 -1.001262,6.998379l-1.045803,-0.152515c-0.035268,-0.594095 -0.101364,-1.043246 -0.199436,-1.347716s-0.205688,-0.465141 -0.323342,-0.48229c-1.69478,-0.744069 -3.444004,-1.378189 -5.393564,-1.60754l-0.892042,6.234982c1.797859,0.299289 3.595705,0.553261 5.393564,1.60754c0.100254,0.014944 0.243508,-0.098879 0.428134,-0.340235s0.380079,-0.663322 0.586223,-1.265462l1.045692,0.152627c-0.011098,0.987468 -0.584521,4.603868 -1.001274,6.998503z" fill="#716c61" id="svg_73" opacity="0.75"/>
  </g>
 </g>
</svg>